{"asset":{"version":"2.0","generator":"Blockbench 4.7.1 glTF exporter"},"scenes":[{"nodes":[11],"name":"blockbench_export"}],"scene":0,"nodes":[{"name":"pyramid","mesh":0},{"name":"bone","children":[0]},{"name":"pyramid","mesh":1},{"name":"bone2","children":[2]},{"name":"pyramid","mesh":2},{"name":"bone3","children":[4]},{"name":"pyramid","mesh":3},{"name":"bone4","children":[6]},{"name":"pyramid","mesh":4},{"name":"bone5","children":[8]},{"name":"Spike","children":[1,3,5,7,9]},{"children":[10]}],"bufferViews":[{"buffer":0,"byteOffset":0,"byteLength":192,"target":34962,"byteStride":12},{"buffer":0,"byteOffset":192,"byteLength":192,"target":34962,"byteStride":12},{"buffer":0,"byteOffset":384,"byteLength":128,"target":34962,"byteStride":8},{"buffer":0,"byteOffset":512,"byteLength":36,"target":34963},{"buffer":0,"byteOffset":548,"byteLength":192,"target":34962,"byteStride":12},{"buffer":0,"byteOffset":740,"byteLength":192,"target":34962,"byteStride":12},{"buffer":0,"byteOffset":932,"byteLength":128,"target":34962,"byteStride":8},{"buffer":0,"byteOffset":1060,"byteLength":36,"target":34963},{"buffer":0,"byteOffset":1096,"byteLength":192,"target":34962,"byteStride":12},{"buffer":0,"byteOffset":1288,"byteLength":192,"target":34962,"byteStride":12},{"buffer":0,"byteOffset":1480,"byteLength":128,"target":34962,"byteStride":8},{"buffer":0,"byteOffset":1608,"byteLength":36,"target":34963},{"buffer":0,"byteOffset":1644,"byteLength":192,"target":34962,"byteStride":12},{"buffer":0,"byteOffset":1836,"byteLength":192,"target":34962,"byteStride":12},{"buffer":0,"byteOffset":2028,"byteLength":128,"target":34962,"byteStride":8},{"buffer":0,"byteOffset":2156,"byteLength":36,"target":34963},{"buffer":0,"byteOffset":2192,"byteLength":192,"target":34962,"byteStride":12},{"buffer":0,"byteOffset":2384,"byteLength":192,"target":34962,"byteStride":12},{"buffer":0,"byteOffset":2576,"byteLength":128,"target":34962,"byteStride":8},{"buffer":0,"byteOffset":2704,"byteLength":36,"target":34963},{"buffer":0,"byteOffset":2740,"byteLength":8},{"buffer":0,"byteOffset":2748,"byteLength":24},{"buffer":0,"byteOffset":2772,"byteLength":8},{"buffer":0,"byteOffset":2780,"byteLength":24},{"buffer":0,"byteOffset":2804,"byteLength":8},{"buffer":0,"byteOffset":2812,"byteLength":24},{"buffer":0,"byteOffset":2836,"byteLength":8},{"buffer":0,"byteOffset":2844,"byteLength":24},{"buffer":0,"byteOffset":2868,"byteLength":8},{"buffer":0,"byteOffset":2876,"byteLength":24}],"buffers":[{"byteLength":2900,"uri":"data:application/octet-stream;base64,"}],"accessors":[{"bufferView":0,"componentType":5126,"count":16,"max":[0.125,0.75,0.0625],"min":[-0.125,0,-0.1875],"type":"VEC3"},{"bufferView":1,"componentType":5126,"count":16,"max":[0.986393928527832,0.16439898312091827,0.986393928527832],"min":[-0.986393928527832,-1,-0.986393928527832],"type":"VEC3"},{"bufferView":2,"componentType":5126,"count":16,"max":[0.296875,0.6270788311958313],"min":[0.00006890854274388403,0],"type":"VEC2"},{"bufferView":3,"componentType":5123,"count":18,"max":[15],"min":[0],"type":"SCALAR"},{"bufferView":4,"componentType":5126,"count":16,"max":[0.125,0.875,-0.375],"min":[-0.125,0,-0.625],"type":"VEC3"},{"bufferView":5,"componentType":5126,"count":16,"max":[0.9899494647979736,0.1414213627576828,0.9899494647979736],"min":[-0.9899494647979736,-1,-0.9899494647979736],"type":"VEC3"},{"bufferView":6,"componentType":5126,"count":16,"max":[0.296875,0.6270788311958313],"min":[0.00006890854274388403,0],"type":"VEC2"},{"bufferView":7,"componentType":5123,"count":18,"max":[15],"min":[0],"type":"SCALAR"},{"bufferView":8,"componentType":5126,"count":16,"max":[0.125,1,-0.8125],"min":[-0.125,0,-1.0625],"type":"VEC3"},{"bufferView":9,"componentType":5126,"count":16,"max":[0.9922778606414795,0.12403473258018494,0.9922778606414795],"min":[-0.9922778606414795,-1,-0.9922778606414795],"type":"VEC3"},{"bufferView":10,"componentType":5126,"count":16,"max":[0.296875,0.6270788311958313],"min":[0.00006890854274388403,0],"type":"VEC2"},{"bufferView":11,"componentType":5123,"count":18,"max":[15],"min":[0],"type":"SCALAR"},{"bufferView":12,"componentType":5126,"count":16,"max":[0.125,1.375,-1.1875],"min":[-0.125,0,-1.4375],"type":"VEC3"},{"bufferView":13,"componentType":5126,"count":16,"max":[0.9958931803703308,0.09053574502468109,0.9958931803703308],"min":[-0.9958931803703308,-1,-0.9958931803703308],"type":"VEC3"},{"bufferView":14,"componentType":5126,"count":16,"max":[0.296875,0.6270788311958313],"min":[0.00006890854274388403,0],"type":"VEC2"},{"bufferView":15,"componentType":5123,"count":18,"max":[15],"min":[0],"type":"SCALAR"},{"bufferView":16,"componentType":5126,"count":16,"max":[0.125,1.875,-1.5625],"min":[-0.125,0,-1.8125],"type":"VEC3"},{"bufferView":17,"componentType":5126,"count":16,"max":[0.9977851510047913,0.06651900708675385,0.9977851510047913],"min":[-0.9977851510047913,-1,-0.9977851510047913],"type":"VEC3"},{"bufferView":18,"componentType":5126,"count":16,"max":[0.296875,0.6270788311958313],"min":[0.00006890854274388403,0],"type":"VEC2"},{"bufferView":19,"componentType":5123,"count":18,"max":[15],"min":[0],"type":"SCALAR"},{"bufferView":20,"componentType":5126,"count":2,"max":[0.25],"min":[0],"type":"SCALAR"},{"bufferView":21,"componentType":5126,"count":2,"max":[1,1,1],"min":[1,-2.7755575615628914e-17,1],"type":"VEC3"},{"bufferView":22,"componentType":5126,"count":2,"max":[0.4583333432674408],"min":[0],"type":"SCALAR"},{"bufferView":23,"componentType":5126,"count":2,"max":[1,1,1],"min":[1,0,1],"type":"VEC3"},{"bufferView":24,"componentType":5126,"count":2,"max":[0.7083333134651184],"min":[0],"type":"SCALAR"},{"bufferView":25,"componentType":5126,"count":2,"max":[1,1,1],"min":[1,1.1102230246251565e-16,1],"type":"VEC3"},{"bufferView":26,"componentType":5126,"count":2,"max":[1],"min":[0],"type":"SCALAR"},{"bufferView":27,"componentType":5126,"count":2,"max":[1,1,1],"min":[1,1.1102230246251565e-16,1],"type":"VEC3"},{"bufferView":28,"componentType":5126,"count":2,"max":[1.5],"min":[0],"type":"SCALAR"},{"bufferView":29,"componentType":5126,"count":2,"max":[1,1,1],"min":[1,0,1],"type":"VEC3"}],"materials":[{"pbrMetallicRoughness":{"metallicFactor":0,"roughnessFactor":1,"baseColorTexture":{"index":0}},"alphaMode":"MASK","alphaCutoff":0.05,"doubleSided":true}],"textures":[{"sampler":0,"source":0,"name":"texture"}],"samplers":[{"magFilter":9728,"minFilter":9728,"wrapS":33071,"wrapT":33071}],"images":[{"mimeType":"image/png","uri":"data:image/png;base64,"}],"meshes":[{"primitives":[{"mode":4,"attributes":{"POSITION":0,"NORMAL":1,"TEXCOORD_0":2},"indices":3,"material":0}]},{"primitives":[{"mode":4,"attributes":{"POSITION":4,"NORMAL":5,"TEXCOORD_0":6},"indices":7,"material":0}]},{"primitives":[{"mode":4,"attributes":{"POSITION":8,"NORMAL":9,"TEXCOORD_0":10},"indices":11,"material":0}]},{"primitives":[{"mode":4,"attributes":{"POSITION":12,"NORMAL":13,"TEXCOORD_0":14},"indices":15,"material":0}]},{"primitives":[{"mode":4,"attributes":{"POSITION":16,"NORMAL":17,"TEXCOORD_0":18},"indices":19,"material":0}]}],"animations":[{"name":"spike","samplers":[{"input":20,"output":21,"interpolation":"LINEAR"},{"input":22,"output":23,"interpolation":"LINEAR"},{"input":24,"output":25,"interpolation":"LINEAR"},{"input":26,"output":27,"interpolation":"LINEAR"},{"input":28,"output":29,"interpolation":"LINEAR"}],"channels":[{"sampler":0,"target":{"node":1,"path":"scale"}},{"sampler":1,"target":{"node":3,"path":"scale"}},{"sampler":2,"target":{"node":5,"path":"scale"}},{"sampler":3,"target":{"node":7,"path":"scale"}},{"sampler":4,"target":{"node":9,"path":"scale"}}]}]}